<svg xmlns="http://www.w3.org/2000/svg" viewBox="0 0 35.107 29.912">
  <path id="Path_461" fill='currentcolor' data-name="Path 461" d="M395.6,233.674a2.94,2.94,0,1,0,2.947,2.934,2.949,2.949,0,0,0-2.947-2.934m0,4.107a1.167,1.167,0,1,1,1.16-1.174,1.166,1.166,0,0,1-1.16,1.174m0-4.107a2.94,2.94,0,1,0,2.947,2.934,2.949,2.949,0,0,0-2.947-2.934m0,4.107a1.167,1.167,0,1,1,1.16-1.174,1.166,1.166,0,0,1-1.16,1.174m0-9.049a7.882,7.882,0,1,0,7.889,7.876,7.9,7.9,0,0,0-7.889-7.876m0,13.991a6.109,6.109,0,1,1,6.1-6.115,6.113,6.113,0,0,1-6.1,6.115m0-9.049a2.94,2.94,0,1,0,2.947,2.934,2.949,2.949,0,0,0-2.947-2.934m0,4.107a1.167,1.167,0,1,1,1.16-1.174,1.166,1.166,0,0,1-1.16,1.174m0-9.049a7.882,7.882,0,1,0,7.889,7.876,7.9,7.9,0,0,0-7.889-7.876m0,13.991a6.109,6.109,0,1,1,6.1-6.115,6.113,6.113,0,0,1-6.1,6.115m0-9.049a2.94,2.94,0,1,0,2.947,2.934,2.949,2.949,0,0,0-2.947-2.934m0,4.107a1.167,1.167,0,1,1,1.16-1.174,1.166,1.166,0,0,1-1.16,1.174m0-9.049a7.882,7.882,0,1,0,7.889,7.876,7.9,7.9,0,0,0-7.889-7.876m0,13.991a6.109,6.109,0,1,1,6.1-6.115,6.113,6.113,0,0,1-6.1,6.115m0-9.049a2.94,2.94,0,1,0,2.947,2.934,2.949,2.949,0,0,0-2.947-2.934m0,4.107a1.167,1.167,0,1,1,1.16-1.174,1.166,1.166,0,0,1-1.16,1.174m17.5-7.55a.89.89,0,0,0-1.134-.535l-3.847,1.408a16.376,16.376,0,0,0-2.986-2.79l3.6-3.6a.914.914,0,0,0,0-1.265.9.9,0,0,0-1.252,0l-3.9,3.9a15.42,15.42,0,0,0-3.195-1.369l2.073-5.7a.889.889,0,0,0-.535-1.147.9.9,0,0,0-1.134.535l-2.138,5.894a13.587,13.587,0,0,0-2.191-.261v-6.376a.887.887,0,1,0-1.773,0V225.3a12.13,12.13,0,0,0-2.178.274l-2.151-5.894a.891.891,0,0,0-1.134-.535.9.9,0,0,0-.535,1.147l2.086,5.7a15.619,15.619,0,0,0-3.182,1.369l-3.886-3.886a.89.89,0,1,0-1.265,1.252l3.612,3.612a15.45,15.45,0,0,0-2.986,2.777l-3.833-1.4a.887.887,0,1,0-.6,1.669l3.325,1.2a16.368,16.368,0,0,0-1.838,3.742l-.1.287.1.287a16.367,16.367,0,0,0,30.955,0l.1-.287-.1-.287a15.738,15.738,0,0,0-1.852-3.755l3.351-1.213a.884.884,0,0,0,.522-1.134m-3.794,6.389a14.6,14.6,0,0,1-27.408,0,14.58,14.58,0,0,1,2.1-3.833,1.389,1.389,0,0,1,.13-.156,14.638,14.638,0,0,1,7.954-5.164.688.688,0,0,0,.156-.039,14.98,14.98,0,0,1,3.338-.391h.026a14.856,14.856,0,0,1,3.325.378.587.587,0,0,0,.143.039,14.69,14.69,0,0,1,7.993,5.15,1.755,1.755,0,0,1,.143.183,14.58,14.58,0,0,1,2.1,3.833" transform="translate(-378.048 -218.04)"/>
</svg>