<svg xmlns="http://www.w3.org/2000/svg" viewBox="0 0 35.107 29.912">
  <path id="Path_462" fill='currentcolor' data-name="Path 462" d="M466.568,234.626l-3.351-1.226a16.189,16.189,0,0,0,1.865-3.742l.091-.287-.091-.287a16.376,16.376,0,0,0-30.968,0l-.1.287.1.287a16.019,16.019,0,0,0,1.839,3.729l-3.325,1.213a.887.887,0,1,0,.6,1.669l3.847-1.4a16.2,16.2,0,0,0,2.973,2.777l-3.6,3.612a.885.885,0,0,0,1.252,1.252l3.886-3.9a15.62,15.62,0,0,0,3.182,1.369l-2.073,5.711a.889.889,0,1,0,1.669.613l2.138-5.894a15.292,15.292,0,0,0,2.177.274v6.376a.893.893,0,0,0,1.786,0v-6.376a17.415,17.415,0,0,0,2.177-.261l2.138,5.894a.911.911,0,0,0,1.147.535.893.893,0,0,0,.522-1.147L454.377,240a16.447,16.447,0,0,0,3.195-1.356l3.9,3.9a.89.89,0,1,0,1.252-1.265l-3.612-3.6a16.422,16.422,0,0,0,3-2.79l3.846,1.408a.889.889,0,0,0,.613-1.669m-5.385-1.4a1.376,1.376,0,0,0-.117.143,14.574,14.574,0,0,1-11.474,5.581h-.026a14.061,14.061,0,0,1-3.325-.391h-.013a.687.687,0,0,0-.156-.039,14.694,14.694,0,0,1-7.915-5.1.274.274,0,0,0-.052-.078,1.126,1.126,0,0,1-.091-.13,14.528,14.528,0,0,1-2.125-3.847,14.6,14.6,0,0,1,27.408,0,15.166,15.166,0,0,1-2.112,3.86" transform="translate(-432.038 -218.04)"/>
</svg>